<svg xmlns="http://www.w3.org/2000/svg" viewBox="0 0 32 32">
  <defs>
    <style>
      .cls-1 {
        fill: #44d62c;
      }
    </style>
  </defs>
  <title>icon library pixel v02</title>
  <g id="Layer_2" data-name="Layer 2">
    <path class="cls-1" d="M16,30A14,14,0,1,1,30,16,14,14,0,0,1,16,30ZM16,3.06A12.94,12.94,0,1,0,28.94,16,12.95,12.95,0,0,0,16,3.06Z"/>
    <path class="cls-1" d="M16,19a2.49,2.49,0,1,1,2.48-2.48A2.48,2.48,0,0,1,16,19Zm0-4.26a1.78,1.78,0,1,0,1.78,1.78A1.78,1.78,0,0,0,16,14.71Z"/>
    <path class="cls-1" d="M19,15.18l-.29-.48a2.45,2.45,0,0,0-1.58-1.22l-.57-.14,2.37-3.07a1.52,1.52,0,1,1,2.41,1.85Zm-1.16-2.26a3.06,3.06,0,0,1,1.21.94l1.69-2.2a.76.76,0,1,0-1.21-.93Z"/>
    <path class="cls-1" d="M13.07,15.18l-2.35-3.06a1.52,1.52,0,1,1,2.42-1.85l2.36,3.07-.57.14a2.45,2.45,0,0,0-1.58,1.22Zm-1.14-4.75a.74.74,0,0,0-.47.16.76.76,0,0,0-.14,1.07L13,13.86a3.13,3.13,0,0,1,1.21-.94l-1.68-2.19A.76.76,0,0,0,11.93,10.43Z"/>
    <path class="cls-1" d="M20.08,23.29a1.53,1.53,0,0,1-1.22-.59L16.5,19.62l.57-.14a2.45,2.45,0,0,0,1.58-1.22l.29-.48,2.34,3.06A1.53,1.53,0,0,1,21,23,1.5,1.5,0,0,1,20.08,23.29ZM17.78,20l1.68,2.2a.78.78,0,0,0,1.08.14h0a.77.77,0,0,0,.14-1.08L19,19.1A3.13,3.13,0,0,1,17.78,20Z"/>
    <path class="cls-1" d="M11.88,23.29A1.5,1.5,0,0,1,11,23h0a1.52,1.52,0,0,1-.28-2.14L13,17.78l.29.48a2.45,2.45,0,0,0,1.58,1.22l.57.14L13.1,22.7A1.53,1.53,0,0,1,11.88,23.29Zm-.46-.91a.77.77,0,0,0,1.07-.14L14.18,20A3.06,3.06,0,0,1,13,19.1l-1.69,2.2a.77.77,0,0,0,.14,1.08Z"/>
    <path class="cls-1" d="M19.5,25.18h-7a4.92,4.92,0,0,1-4.92-4.92V12.45A4.92,4.92,0,0,1,12.5,7.53h7a4.92,4.92,0,0,1,4.92,4.92v7.81A4.92,4.92,0,0,1,19.5,25.18Zm-7-16.89a4.17,4.17,0,0,0-4.17,4.16v7.81a4.17,4.17,0,0,0,4.17,4.16h7a4.17,4.17,0,0,0,4.17-4.16V12.45A4.17,4.17,0,0,0,19.5,8.29Z"/>
  </g>
</svg>
