<svg xmlns="http://www.w3.org/2000/svg" viewBox="0 0 32 32"><defs><style>.cls-1{fill:#44d62c;}</style></defs><g id="Layer_2" data-name="Layer 2"><path class="cls-1" d="M6.66,9.58H25.34a.59.59,0,0,1,.58.59V21.83a.59.59,0,0,1-.58.59H6.66a.59.59,0,0,1-.58-.59V10.17A.59.59,0,0,1,6.66,9.58Zm.58,1.17v10.5H24.76V10.75Zm3.92,6.59a.57.57,0,0,1,0,.82.59.59,0,0,1-.83,0L8.58,16.41a.59.59,0,0,1,0-.82l1.75-1.75a.59.59,0,0,1,.83,0,.57.57,0,0,1,0,.82L9.82,16Zm9.68-2.68a.57.57,0,0,1,0-.82.59.59,0,0,1,.83,0l1.75,1.75a.59.59,0,0,1,0,.82l-1.75,1.75a.59.59,0,0,1-.83,0,.57.57,0,0,1,0-.82L22.18,16Z"/><path class="cls-1" d="M16,30A14,14,0,1,1,30,16,14,14,0,0,1,16,30ZM16,3.16A12.84,12.84,0,1,0,28.84,16,12.85,12.85,0,0,0,16,3.16Z"/></g></svg>