<svg xmlns="http://www.w3.org/2000/svg" viewBox="0 0 32 32">
  <defs>
    <style>
      .cls-1 {
        fill: #44d62c;
      }
    </style>
  </defs>
  <title>icon</title>
  <g id="Layer_2" data-name="Layer 2">
    <g>
      <g>
        <path class="cls-1" d="M17.85,8.73A1.81,1.81,0,1,1,16,6.92,1.82,1.82,0,0,1,17.85,8.73Z"/>
        <path class="cls-1" d="M17.85,16A1.81,1.81,0,1,1,16,14.18,1.81,1.81,0,0,1,17.85,16Z"/>
        <path class="cls-1" d="M17.85,23.27A1.81,1.81,0,1,1,16,21.45,1.81,1.81,0,0,1,17.85,23.27Z"/>
        <path class="cls-1" d="M24.07,12.39a1.82,1.82,0,1,1-1.81-1.82A1.81,1.81,0,0,1,24.07,12.39Z"/>
        <path class="cls-1" d="M24.07,19.59a1.82,1.82,0,1,1-1.81-1.82A1.81,1.81,0,0,1,24.07,19.59Z"/>
        <path class="cls-1" d="M11.56,12.39a1.82,1.82,0,1,1-1.82-1.82A1.81,1.81,0,0,1,11.56,12.39Z"/>
        <path class="cls-1" d="M11.56,19.59a1.82,1.82,0,1,1-1.82-1.82A1.81,1.81,0,0,1,11.56,19.59Z"/>
        <path class="cls-1" d="M16,15.09a.89.89,0,0,1-.89-.89V10.53a.89.89,0,1,1,1.78,0V14.2A.89.89,0,0,1,16,15.09Z"/>
        <path class="cls-1" d="M16,22.36a.89.89,0,0,1-.89-.89V17.8a.89.89,0,0,1,1.78,0v3.67A.89.89,0,0,1,16,22.36Z"/>
        <path class="cls-1" d="M17.59,16a.88.88,0,0,1-.45-1.65l3.16-1.87a.88.88,0,0,1,1.21.32A.89.89,0,0,1,21.2,14L18,15.85A.92.92,0,0,1,17.59,16Z"/>
        <path class="cls-1" d="M11.33,19.67a.91.91,0,0,1-.77-.44A.89.89,0,0,1,10.88,18L14,16.15a.89.89,0,1,1,.9,1.53l-3.16,1.87A.92.92,0,0,1,11.33,19.67Z"/>
        <path class="cls-1" d="M14.49,16a.89.89,0,0,1-.45-.12L10.88,14a.89.89,0,1,1,.9-1.54l3.16,1.87a.89.89,0,0,1,.32,1.22A.9.9,0,0,1,14.49,16Z"/>
        <path class="cls-1" d="M20.75,19.67a.89.89,0,0,1-.45-.12l-3.16-1.87a.89.89,0,1,1,.9-1.53L21.2,18a.89.89,0,0,1,.31,1.22A.88.88,0,0,1,20.75,19.67Z"/>
      </g>
      <path class="cls-1" d="M16,30A14,14,0,1,1,30,16,14,14,0,0,1,16,30ZM16,3.06A12.94,12.94,0,1,0,28.94,16,12.95,12.95,0,0,0,16,3.06Z"/>
    </g>
  </g>
</svg>
